<?xml version="1.0" encoding="UTF-8"?>
<svg id="Layer_2" data-name="Layer 2" xmlns="http://www.w3.org/2000/svg" viewBox="0 0 336.26 336.26">
  <defs>
    
  </defs>
  <g id="Layer_1" data-name="Layer 1">
    <g>
      <rect class="cls-2" width="336.26" height="336.26" rx="26.91" ry="26.91"></rect>
      <g>
        <g>
          <path class="cls-1" d="M195.44,183.73l-7.1-7.12-4.35,4.26c-1.82,1.78-4.27,2.8-6.86,2.68-4.22-.19-7.57-2.85-9.04-7.01-1.43,4.18-4.93,7.01-9.34,7.02-2.65,0-5.06-1.19-6.9-3.01l-4-3.96-7.15,7.15-7.11-7.19-4.1,4.13c-1.75,1.76-4.03,2.8-6.55,2.86-3.79.09-7.13-2.18-8.73-5.29-1.84-3.57-1.3-7.61,1.07-10.7,1.35-1.76,2.93-3.09,4.6-4.84l-7.09-7.18,7.11-7.21-4.37-4.52c-2.34-2.41-3.02-5.89-2-9.31.83-2.77,3.05-5.16,6.14-6.33-5.54-1.94-8.03-7.89-5.69-13.04.48-1.05,1.02-1.99,1.83-2.82l4.14-4.23-7.15-7.29,7.1-7.21c-1.66-1.72-3.39-3.1-4.76-4.9-2.71-3.58-2.68-8.25-.04-11.78,3.44-4.61,10.06-5.48,14.13-1.4l4.37,4.38,7.11-7.13,7.15,7.07,4.36-4.28c2.45-2.4,6-3.16,9.42-2.12,2.93.88,5.25,3.18,6.43,6.49,1.24-3.27,3.53-5.58,6.33-6.44,3.47-1.07,7.03-.39,9.48,1.99l4.49,4.38,7.06-7.04,7.15,7.05,3.87-3.86c2.09-2.09,4.87-3.2,7.85-2.95,3.84.33,6.91,2.99,8.16,6.27,1.48,3.89.45,7.86-2.4,10.64l-3.73,3.65,7.09,7.23-7.11,7.31,4.09,4.21c2.39,2.45,3.3,5.81,2.36,9.31-.77,2.87-2.91,5.34-6.06,6.54,1.48.72,2.45,1.28,3.41,2.23,3.79,3.71,4.2,9.72.46,13.52l-4.31,4.38,7.18,7.25-7.12,7.1,3.71,3.81c1.8,1.86,2.92,4.13,3.06,6.8.26,5.1-3.45,9.55-8.53,10.21-2.94.39-5.69-.85-7.83-2.8-1.44-1.32-2.69-2.65-4.1-4.12l-2.83,2.87-4.38,4.3ZM121.29,85.96c-1.41-.93-2-2.46-1.59-4.06.34-1.35,1.67-2.43,3.17-2.53s2.83.75,3.48,2.16c.61,1.43.76,2.89.98,4.61l5.4-5.37c-1.53-1.55-2.83-3.07-4.37-4.41-4-3.5-9.88-2.54-12.66,1.89-2.64,4.19-1.26,8.4,2.17,11.63l2.98,2.81,5.15-5.23c-1.74-.47-3.27-.55-4.69-1.49ZM160.56,85.75c-2.22,1.72-5.6,1.17-4.68,2.07l4.87,4.85c1.58-1.63,3.18-2.97,4.53-4.62,2.67-3.25,2.57-7.59-.08-10.84-2.99-3.67-8.51-3.97-12.08-.8-1.52,1.35-2.82,2.77-4.35,4.3l5.47,5.41c.17-1.76.34-3.27,1.02-4.75.62-1.35,2.07-2.09,3.42-2.04,1.49.06,2.71,1.13,3.1,2.32.5,1.53.08,3.07-1.22,4.08ZM182.03,86.1l5.41-5.36-4.24-4.23c-1.9-1.89-4.43-2.55-7.1-2.17-3.15.44-5.63,2.77-6.61,5.56-1.13,3.2-.34,6.5,2.02,8.84l3.98,3.94,5.16-5.23c-1.81-.46-3.42-.64-4.84-1.6-1.32-.89-1.87-2.45-1.42-4.07.33-1.21,1.55-2.27,3.05-2.41,3.7-.34,4.26,4.14,4.57,6.74ZM210.35,87.53l5.08,5.15c1.38-1.34,2.69-2.48,3.93-3.82,1.9-2.07,2.92-4.69,2.41-7.51-.45-2.48-1.98-4.82-4.4-6.14-3.14-1.71-6.98-1.11-9.62,1.32-1.47,1.35-2.8,2.72-4.19,4.26l5.4,5.37c.2-1.73.27-3.19.94-4.62.9-1.91,3.13-2.74,4.93-1.8s2.42,3.15,1.39,4.97c-1.21,2.14-3.95,2.1-5.88,2.82ZM146.9,80.68l-3.38-3.33-2.77-2.81-6.23,6.23,6.2,6.24,6.19-6.34ZM195.48,86.95l6.2-6.24-6.22-6.18-6.2,6.22,6.22,6.2ZM126,86.08c-.07-1.59-.27-2.81-.75-4.09-.5-1-1.48-1.56-2.53-1.4-.96.14-1.75.84-1.92,1.82-.5,2.78,3.08,3.51,5.2,3.67ZM155.53,86.02c1.59-.09,2.88-.4,4.09-1.07.9-.6,1.31-1.55,1.13-2.56-.17-.95-.95-1.67-1.93-1.82-2.71-.41-3.24,3.29-3.28,5.44ZM180.7,86.04c-.07-1.58-.3-2.78-.8-4.02-.44-.93-1.38-1.54-2.34-1.46-1.02.08-1.81.76-2.06,1.7-.73,2.81,3.03,3.67,5.19,3.79ZM210.29,86.07c2.3-.12,5.75-1.11,5.16-3.69-.21-.91-.96-1.7-1.93-1.82-2.75-.36-3.25,3.31-3.23,5.51ZM150.4,97.09l2.94,2.84,6.47-6.36-11.95-11.93-6.26,6.25,3.07,3.12,5.66.03.07,6.06ZM185.81,90.99h5.71c1.05-1.06,2.1-1.96,3.03-3.16l-6.2-6.19-11.97,11.93,6.41,6.37,2.93-2.88.08-6.06ZM205.03,91.03l.06,5.93c.99,1.08,1.88,2.15,3.07,2.87l6.37-6.26-11.92-11.92c-2.33,2.38-4.12,3.93-6.19,6.29l2.97,3.02,5.65.06ZM131.19,91.04l5.66-.05,2.95-3.12-6.21-6.18-11.85,11.93,6.45,6.25c.95-.98,2.21-1.79,2.87-2.9l.14-5.94ZM168.16,99.87l6.4-6.3-3.68-3.66c-1.25-1.17-1.97-2.56-2.76-4.29-.8,1.62-1.48,3.03-2.72,4.18l-3.76,3.78,6.52,6.29ZM140.75,112.64c1.31-.92,2.12-2.56,3.43-3.12,1.49-.55,3.28.14,4.93-.24l.07-5.32,3.21-3.18c-.94-1.23-2.5-2.02-3.14-3.28l-.14-5.25-4.99-.07-3.45-3.32-3.43,3.34-4.82.06-.2,5.37-3.07,3.16,3.18,3.27.07,5.23c1.64.37,3.43-.28,4.86.24l3.47,3.13ZM195.49,112.65c1.36-.83,2.08-2.52,3.4-3.13l4.88-.24.17-5.18,3.12-3.33c-.89-1.18-2.4-1.97-3.11-3.22l-.17-5.29c-1.58-.18-3.33.22-4.84-.17l-3.4-3.17-3.6,3.13c-1.5.54-3.38-.13-4.93.23l-.18,5.29-3.03,3.22,3.13,3.23.12,5.3c1.71.33,3.51-.33,4.94.21l3.5,3.12ZM127.26,100.73l-6.44-6.23-6.3,6.28,6.38,6.4,6.37-6.45ZM160.69,107.17l6.51-6.41-6.48-6.29-6.46,6.32,6.42,6.39ZM175.57,107.16l6.3-6.36-6.38-6.32-6.47,6.28,6.56,6.4ZM215.42,107.2l6.31-6.42-6.31-6.29-6.42,6.34,6.42,6.37ZM139.79,113.59l-2.95-2.97-5.64-.05-.06-6.07-2.99-2.83-6.38,6.42,9.49,9.54c.77.77,1.43,1.47,2.32,2.25l6.21-6.29ZM141.63,113.69l6.27,6.23,11.86-11.84-6.4-6.41-2.99,2.82-.05,6.1-5.75.04-2.93,3.07ZM168.08,116.2c.88-1.69,1.55-2.99,2.67-4.16l3.9-3.97-6.53-6.4-6.55,6.41,3.1,3.17c1.56,1.35,2.55,2.98,3.41,4.96ZM194.54,113.58l-3.01-2.97-5.74-.06-.09-5.98c-.77-1.01-1.94-1.98-2.92-2.86l-6.3,6.36c1.54,1.74,3.04,3.18,4.61,4.73l7.26,7.14,6.19-6.36ZM196.42,113.73l6.19,6.21,11.9-11.8-6.45-6.47-3.01,2.82-.05,6.08-5.73.05c-.94,1.11-2.06,1.89-2.85,3.1ZM127.41,115.63c-.35,1.82-.4,3.19-1.06,4.57-.9,1.86-2.98,2.65-4.8,1.8s-2.49-2.93-1.65-4.74c.57-1.23,1.67-1.98,2.97-2.32l3.09-.83-5.09-5.12-4.33,4.42c-2.5,2.55-2.9,6.34-1.23,9.57,1.49,2.87,4.75,4.81,8.18,4.44,2.03-.22,3.81-1.13,5.22-2.55l3.98-4-5.26-5.23ZM182.03,115.62c-.22,1.99-.37,3.48-1.19,4.94-1,1.76-3.3,2.31-4.93,1.27s-2.15-3.16-1.13-4.9c1.26-2.14,3.76-2.06,5.86-2.82l-5.12-5.09c-1.46,1.5-2.97,2.82-4.31,4.39-2.15,2.51-2.84,5.73-1.59,8.84,1.07,2.66,3.58,4.8,6.68,5.16,5.14.6,7.83-3.38,11.13-6.59l-5.4-5.18ZM153.51,116.12l-4.72,4.73c3.2,3.08,5.57,6.68,10.32,6.59,3.34-.06,6.14-2.13,7.38-4.94,1.38-3.13.76-6.53-1.48-9.09-1.37-1.56-2.82-2.94-4.36-4.36l-5.08,5.06,3.62,1.03c1.35.38,2.31,1.51,2.63,2.65.39,1.41.03,2.79-1.01,3.74-.89.81-2.1,1.02-3.37.65-3.35-.99-2.84-6.23-3.42-6.29-.1-.01-.33.08-.5.25ZM208.81,115.65l-5.32,5.16c1.43,1.47,2.74,2.85,4.23,4.22,3.01,2.77,7.34,3.3,10.67.87,4.11-2.99,4.67-8.69,1.31-12.5-1.34-1.52-2.77-2.81-4.28-4.36l-5.06,5.07c2.17.81,4.72.72,5.93,3.03.89,1.69.33,3.72-1.15,4.66-1.58,1.01-3.57.6-4.72-.88-1.4-1.81-1.04-3.5-1.6-5.27ZM140.71,127.22l6.27-6.43-6.27-6.22-6.21,6.25,6.21,6.41ZM195.5,127.21l6.2-6.4-6.21-6.27-6.25,6.3,6.25,6.37ZM120.94,119.75c.38.97,1.34,1.46,2.28,1.41,2.38-.12,2.72-3.65,2.84-5.65-1.37.19-2.46.43-3.61.88-1.35.53-2.09,1.88-1.51,3.36ZM160.08,120.53c.7-.68.81-1.57.59-2.42-.48-1.87-3.25-2.32-5.19-2.6.07,1.91.39,5,2.4,5.56.78.22,1.56.08,2.19-.53ZM180.73,115.51c-2.33.28-5.87,1.03-5.26,3.84.21.95,1.06,1.71,2.1,1.81,2.67.24,3.16-3.51,3.16-5.64ZM214.21,120.94c1.06-.51,1.44-1.55,1.25-2.57-.42-2.25-3.17-2.46-5.26-2.9.09,1.42.19,2.63.65,3.85.51,1.34,1.96,2.3,3.36,1.62ZM151.83,130.82c1.25-1.21,2.59-1.97,4.13-2.62-1.81-.72-3.24-1.58-4.47-2.88l-3.6-3.57-6.31,6.44,6.28,6.47,3.97-3.84ZM184.63,131.13l3.69,3.56,6.29-6.51-6.27-6.46-3.8,3.75c-1.22,1.26-2.68,2-4.27,2.74,1.75.7,3.14,1.57,4.35,2.91ZM130.39,131.57l3.14,3.09,6.36-6.51-6.29-6.35-4.01,3.93c-1.15,1.09-2.45,1.75-3.87,2.51,1.92.89,3.38,1.84,4.68,3.33ZM168.66,133.36c1.09-2.5,3.04-4.12,5.57-5.2-3.18-1.2-5-3.37-6.16-6.33-1.08,3.12-3,5.19-6.03,6.35,2.9,1.15,4.95,3.28,5.93,6.12.48-.22.44-.63.69-.94ZM206.93,130.52c1.14-1.01,2.27-1.68,3.74-2.3-1.51-.66-2.83-1.38-4.02-2.49l-4-3.95-6.35,6.42,6.41,6.48,4.22-4.16ZM127.27,140.82c.86-.54,1.46-1.27,2.13-1.96l3.22-3.27-3.85-3.93c-1.5-1.53-3.43-2.55-5.61-2.7-3.47-.23-6.54,1.76-7.97,4.69-1.53,3.15-.99,6.72,1.32,9.38,1.33,1.54,2.8,2.84,4.26,4.34.77-.46,1.17-1.04,1.71-1.59l3.45-3.54c-1.52-.42-3.05-.6-4.38-1.38-1.46-.86-2.23-2.27-1.91-3.97.25-1.34,1.44-2.45,2.95-2.69,3.42-.53,4.58,3.6,4.69,6.61ZM155.62,142.26l4.98,5.1c1.19-.93,2.03-2,3.09-2.99.99-.92,1.81-1.94,2.48-3.13,1.9-3.35,1.14-7.46-1.63-10.1-3.47-3.31-8.58-2.67-11.79.51l-3.96,3.92,5.44,5.4c.19-1.81.32-3.46,1.14-4.92.76-1.34,2.19-2.03,3.59-1.86s2.57,1.3,2.88,2.58c.36,1.49-.16,2.92-1.4,3.81-1.41,1.01-3.15,1.16-4.83,1.67ZM180.81,136.06c.73,1.47,1.01,2.97,1.16,4.79l5.41-5.19c-1.29-1.5-2.57-2.71-3.93-4.01-1.47-1.42-3.22-2.41-5.3-2.65-3.55-.41-6.83,1.56-8.31,4.62-1.54,3.19-.95,6.81,1.43,9.48,1.32,1.48,2.72,2.78,4.21,4.27l5.08-5.11c-1.7-.53-3.26-.61-4.57-1.53-1.31-.84-1.97-2.3-1.73-3.71.26-1.49,1.42-2.58,2.86-2.81s2.96.48,3.67,1.84ZM210.47,142.42l4.91,5c1.49-1.52,2.99-2.82,4.35-4.4,1.92-2.24,2.7-5.1,1.78-8.12-.7-2.29-2.52-4.52-5.13-5.46-2.8-1.01-5.83-.37-8.13,1.59-1.66,1.41-3.05,3.02-4.66,4.61l5.4,5.4c.17-1.92.27-3.57,1.18-5.05,1.05-1.7,3.11-2.31,4.81-1.35s2.23,3.05,1.26,4.77c-1.31,2.32-4.07,2.06-5.77,3.02ZM140.7,141.9l6.29-6.34-6.24-6.39-6.31,6.48,6.26,6.25ZM195.49,141.95l6.29-6.34-6.31-6.43-6.3,6.47,6.31,6.29ZM126,140.89c-.09-2.34-.61-6.05-3.46-5.48-.93.19-1.69.93-1.8,1.97-.26,2.55,3.14,3.34,5.26,3.51ZM155.65,140.84c1.61-.12,2.77-.48,3.91-1.09.94-.55,1.37-1.54,1.2-2.52s-.94-1.75-1.93-1.86c-2.66-.3-3.35,3.19-3.19,5.47ZM180.71,140.92c-.05-1.66-.34-2.86-.87-4.14-.47-.99-1.41-1.53-2.46-1.4-.97.12-1.77.84-1.94,1.85-.46,2.75,3.09,3.42,5.27,3.7ZM210.31,140.93c2.29-.25,5.81-1.15,5.12-3.85-.25-.98-1.03-1.68-2.07-1.73-2.63-.11-3.12,3.42-3.05,5.57ZM153.3,154.63l1.94-1.8,4.45-4.44c-.27-.69-.88-1.01-1.36-1.51-1.82-1.94-3.67-3.71-5.56-5.58l-4.87-4.8-6.29,6.35,3,3.06,5.73.07.03,5.74,2.93,2.91ZM131.19,151.66v-5.7s5.64-.1,5.64-.1l2.99-3.02-6.26-6.29-5.79,5.75-6.03,6.08,6.35,6.28c1.15-.99,2.13-1.87,3.09-3ZM185.83,145.92l5.71-.04,3.04-3.02-6.31-6.29-3.56,3.48-8.31,8.22,6.37,6.4,2.93-2.78.12-5.97ZM208.14,154.64l6.31-6.3-7.67-7.78-4.01-4.06-6.41,6.35c1.07,1,1.94,2.18,3.01,2.97l5.68.17.05,5.72c.94,1.04,1.86,1.99,3.05,2.92ZM168.13,154.66l6.45-6.38-4.1-4.18c-1.09-1.07-1.62-2.37-2.41-3.88-.76,1.61-1.49,3.03-2.72,4.21l-3.77,3.86,6.55,6.37ZM140.75,167.4l3.36-3.37,5.03-.06.04-5.23,3.19-3.23-3.18-3.19-.04-5.18-5.05-.06-3.31-3.24c-1.37.84-2.14,2.5-3.5,3.12-1.51.47-3.24-.11-4.87.21l-.09,5.2-3.14,3.14,3.08,3.29.15,5.14,4.86.07,3.46,3.38ZM195.53,167.41l3.3-3.37,4.96-.08.18-5.13,3.07-3.33-3.07-3.24-.18-5.07-4.85-.19c-1.32-.63-2.17-2.33-3.47-3.13-1.29.85-2.16,2.5-3.46,3.14l-5.02.16-.08,5.31c-1.07.98-2.11,1.89-3.1,3.02l3.13,3.25.05,5.23,5.11.07,3.43,3.38ZM120.81,161.8l6.33-6.3-6.27-6.24-6.31,6.27,6.25,6.27ZM160.73,161.79l6.4-6.23-6.41-6.37-3.89,3.79c-.9.82-1.74,1.6-2.47,2.62l6.37,6.19ZM175.51,161.8l6.28-6.32-6.29-6.29-6.46,6.36,6.46,6.25ZM215.43,161.8l6.24-6.23-6.29-6.34-6.34,6.33,6.38,6.24ZM139.8,168.29l-2.94-3.07-5.67-.08-.04-5.89c-1.08-.97-1.91-2.02-3.06-2.83l-6.32,6.25c1.18,1.37,2.35,2.49,3.58,3.73l8.23,8.32,6.23-6.43ZM141.59,168.37l6.27,6.32,11.9-11.97-6.39-6.35-3,2.86-.06,5.93-5.71.18c-1.09.86-2.06,2-3.01,3.03ZM168.09,170.89c.86-1.94,1.67-3.3,2.97-4.59l3.57-3.58-6.52-6.35-6.48,6.3c2.72,3.14,4.82,4.04,6.47,8.22ZM194.59,168.29l-3.06-3.06-5.7-.05-.17-5.98c-.8-1.02-1.92-1.92-2.9-2.77l-6.35,6.26,3.44,3.53,8.43,8.52,6.31-6.46ZM196.44,168.44l6.22,6.3,11.87-12.01-6.43-6.36-3,2.9-.08,5.9-5.63.05c-1,1.07-2.05,1.98-2.94,3.22ZM127.41,170.41c-.42,1.84-.41,3.33-1.19,4.69-.94,1.62-2.75,2.29-4.38,1.66-1.67-.64-2.6-2.36-2.18-4.19.67-2.93,3.81-2.94,6.17-3.78l-4.97-5.15c-.76.54-1.2,1.21-1.8,1.77-1.07,1.01-2.1,1.97-2.97,3.19-1.9,2.65-2.38,5.98-.8,9.07,1.25,2.45,3.88,4.46,6.99,4.63,2.4.13,4.65-.79,6.33-2.49l4.12-4.19-5.29-5.2ZM153.93,170.57c-1.86,1.62-3.47,3.35-5.16,5.13l3.87,3.88c1.63,1.64,3.76,2.69,6.11,2.71,2.96.03,5.53-1.55,6.98-3.74,1.71-2.58,1.97-5.69.69-8.38-.89-1.86-2.27-3.24-3.75-4.6-.7-.64-1.22-1.41-2.04-1.9l-4.99,5.06c1.98.8,5.17.8,6.11,3.44.62,1.74-.06,3.61-1.66,4.43-1.54.79-3.49.32-4.53-1.2-1.51-2.21-1.02-5.36-1.63-4.84ZM182.04,170.32c-.25,1.73-.33,2.9-.85,4.2-.75,1.89-2.66,2.92-4.55,2.28-1.82-.62-2.82-2.57-2.22-4.48.8-2.56,3.6-2.79,6.09-3.51l-4.98-5.13c-1.63,1.56-3.18,2.91-4.54,4.59-2.13,2.64-2.64,6.06-1.17,9.18,1.27,2.71,4.03,4.73,7.29,4.86,2.29.09,4.47-.78,6.07-2.39l4.26-4.25-5.42-5.34ZM208.87,170.33l-5.33,5.29c3.08,3.13,5.53,6.82,10.23,6.67,3.25-.1,6.01-2.14,7.29-4.86,1.44-3.07,1.02-6.42-1.06-9.07-1.35-1.72-2.98-3.1-4.54-4.69l-5.01,5.1c2.23.92,4.74.72,5.9,3.17.84,1.78.14,3.79-1.47,4.64-1.73.91-3.7.31-4.77-1.39-.92-1.46-.89-3.17-1.24-4.85ZM146.92,175.6l-6.27-6.32-6.18,6.34,6.26,6.38,6.19-6.4ZM195.47,182.02l6.28-6.41-6.27-6.3-6.23,6.35,6.22,6.35ZM159.97,175.29c.68-.6.92-1.41.8-2.24-.33-2.19-3.26-2.59-5.24-2.83-.02,1.72.36,5.01,2.25,5.48.75.19,1.53.16,2.19-.41ZM180.68,170.2c-1.44.22-2.95.36-4.16,1.17-.93.62-1.31,1.76-1.01,2.78.28.94,1.12,1.63,2.23,1.66,2.56.08,2.98-3.53,2.94-5.62ZM215.47,173.03c-.38-2.23-3.46-2.55-5.24-2.83.01,1.52.15,2.91.8,4.19.56,1.11,1.68,1.65,2.78,1.36,1.13-.3,1.88-1.4,1.66-2.71ZM125.03,174.71c.78-1.41.95-2.91.96-4.46-1.93.17-4.6.58-5.13,2.37-.25.86-.14,1.78.48,2.45.97,1.05,2.94.98,3.69-.37Z"></path>
          <path class="cls-1" d="M200.1,156.6v.02h.02v.02l-.23,1.49-.02.03h-.03s-1.86-1.18-3.7-1.21v10.01l.44.79v.03s-.03.02-.05.02h-2.23l-.03-.02v-.03l.42-.79v-10.01c-1.83.03-3.67,1.19-3.68,1.21h-.03l-.03-.03-.21-1.49v-.02l.03-.03h9.3s.03.02.03.02Z"></path>
          <path class="cls-1" d="M200.1,154.47v-.02h.02v-.02l-.23-1.49-.02-.03h-.03s-1.86,1.18-3.7,1.21v-10.01l.44-.79v-.03s-.03-.02-.05-.02h-2.23l-.03.02v.03l.42.79v10.01c-1.83-.03-3.67-1.19-3.68-1.21h-.03l-.03.03-.21,1.49v.02l.03.03h9.3s.03-.02.03-.02Z"></path>
          <path class="cls-1" d="M145.37,156.6v.02h.02v.02l-.23,1.49-.02.03h-.03s-1.86-1.18-3.7-1.21v10.01l.44.79v.03s-.03.02-.05.02h-2.23l-.03-.02v-.03l.42-.79v-10.01c-1.83.03-3.67,1.19-3.68,1.21h-.03l-.03-.03-.21-1.49v-.02l.03-.03h9.3s.03.02.03.02Z"></path>
          <path class="cls-1" d="M145.37,154.47v-.02h.02v-.02l-.23-1.49-.02-.03h-.03s-1.86,1.18-3.7,1.21v-10.01l.44-.79v-.03s-.03-.02-.05-.02h-2.23l-.03.02v.03l.42.79v10.01c-1.83-.03-3.67-1.19-3.68-1.21h-.03l-.03.03-.21,1.49v.02l.03.03h9.3s.03-.02.03-.02Z"></path>
          <path class="cls-1" d="M200.1,101.57v.02h.02v.02l-.23,1.49-.02.03h-.03s-1.86-1.18-3.7-1.21v10.01l.44.79v.03s-.03.02-.05.02h-2.23l-.03-.02v-.03l.42-.79v-10.01c-1.83.03-3.67,1.19-3.68,1.21h-.03l-.03-.03-.21-1.49v-.02l.03-.03h9.3s.03.02.03.02Z"></path>
          <path class="cls-1" d="M200.1,99.81v-.02h.02v-.02l-.23-1.49-.02-.03h-.03s-1.86,1.18-3.7,1.21v-10.01l.44-.79v-.03s-.03-.02-.05-.02h-2.23l-.03.02v.03l.42.79v10.01c-1.83-.03-3.67-1.19-3.68-1.21h-.03l-.03.03-.21,1.49v.02l.03.03h9.3s.03-.02.03-.02Z"></path>
          <path class="cls-1" d="M145.45,101.57v.02h.02v.02l-.23,1.49-.02.03h-.03s-1.86-1.18-3.7-1.21v10.01l.44.79v.03s-.03.02-.05.02h-2.23l-.03-.02v-.03l.42-.79v-10.01c-1.83.03-3.67,1.19-3.68,1.21h-.03l-.03-.03-.21-1.49v-.02l.03-.03h9.3s.03.02.03.02Z"></path>
          <path class="cls-1" d="M145.45,99.81v-.02h.02v-.02l-.23-1.49-.02-.03h-.03s-1.86,1.18-3.7,1.21v-10.01l.44-.79v-.03s-.03-.02-.05-.02h-2.23l-.03.02v.03l.42.79v10.01c-1.83-.03-3.67-1.19-3.68-1.21h-.03l-.03.03-.21,1.49v.02l.03.03h9.3s.03-.02.03-.02Z"></path>
        </g>
        <g>
          <g>
            <path class="cls-1" d="M125.87,244.05v3.74h-.55c-.39-.42-.79-.83-1.21-1.21-.42-.39-.84-.72-1.27-1.02-.42-.29-.84-.52-1.27-.69-.42-.16-.83-.25-1.21-.25s-.72.11-.95.34-.39.52-.48.88c-.09.36-.15.75-.16,1.18-.02.43-.03.85-.03,1.25v10.75c0,.61.04,1.12.11,1.54.07.42.16.78.28,1.07.11.29.23.53.36.7.13.17.25.31.36.4v.55h-5.5v-.55c.11-.09.23-.22.36-.4.13-.17.25-.41.36-.7.11-.29.2-.65.28-1.07.07-.42.11-.93.11-1.54v-10.73c0-.4,0-.83-.01-1.27,0-.44-.06-.84-.16-1.2-.1-.36-.26-.65-.47-.88-.21-.23-.53-.34-.95-.34-.39,0-.79.08-1.21.25-.42.17-.84.39-1.27.69-.42.29-.84.63-1.27,1.02-.42.38-.83.79-1.21,1.21h-.55v-3.74h17.52Z"></path>
            <path class="cls-1" d="M134.4,248.28v4.84h8.47v-4.81c0-.6-.04-1.12-.11-1.55-.07-.43-.16-.79-.28-1.07-.11-.28-.23-.51-.36-.69-.13-.17-.25-.31-.36-.4v-.55h5.5v.55c-.11.09-.23.22-.36.4-.13.17-.25.4-.36.69-.11.28-.2.64-.28,1.06-.07.42-.11.94-.11,1.54v10.75c0,.61.04,1.12.11,1.54.07.42.16.78.28,1.07.11.29.23.53.36.7.13.17.25.31.36.4v.55h-5.5v-.55c.11-.09.23-.22.36-.4.13-.17.25-.41.36-.7.11-.29.2-.65.28-1.07.07-.42.11-.93.11-1.54v-5.36h-8.47v5.36c0,.61.04,1.12.11,1.54.07.42.16.78.28,1.07.11.29.23.53.36.7.13.17.25.31.36.4v.55h-5.5v-.55c.11-.09.23-.22.36-.4.13-.17.25-.41.36-.7.11-.29.2-.65.28-1.07.07-.42.11-.93.11-1.54v-10.73c0-.6-.04-1.12-.11-1.55-.07-.43-.16-.79-.28-1.07-.11-.28-.23-.51-.36-.69-.13-.17-.25-.31-.36-.4v-.55h5.5v.55c-.11.09-.23.22-.36.4-.13.17-.25.4-.36.69-.11.28-.2.64-.28,1.06-.07.42-.11.94-.11,1.54Z"></path>
            <path class="cls-1" d="M156.07,259.03c0,.4.03.83.08,1.27.05.44.17.84.36,1.21.18.37.45.66.8.89.35.23.82.34,1.4.34s1.21-.09,1.82-.26c.61-.17,1.19-.4,1.76-.69.57-.28,1.1-.62,1.61-1,.5-.39.95-.79,1.33-1.21h.55v3.71h-14.11v-.55c.11-.09.23-.22.36-.4.13-.17.25-.41.36-.7.11-.29.2-.65.28-1.07.07-.42.11-.93.11-1.54v-10.73c0-.6-.04-1.12-.11-1.55-.07-.43-.16-.79-.28-1.07-.11-.28-.23-.51-.36-.69-.13-.17-.25-.31-.36-.4v-.55h14.11v3.71h-.55c-.39-.42-.83-.82-1.33-1.21-.5-.38-1.04-.72-1.61-1.02-.57-.29-1.15-.52-1.76-.69-.61-.17-1.21-.25-1.82-.25s-1.05.11-1.4.34c-.35.23-.61.52-.8.88-.18.36-.3.76-.36,1.2-.06.44-.08.86-.08,1.27v8.14c.2-.7.44-1.37.73-2.04.28-.66.63-1.25,1.03-1.76.4-.51.87-.93,1.39-1.24s1.11-.47,1.77-.47,1.16.15,1.55.44c.39.29.69.62.89.99.26.44.44.93.55,1.46-.04,0-.21-.07-.52-.21-.31-.14-.74-.21-1.29-.21-.72,0-1.39.06-2.02.18-.63.12-1.21.34-1.73.67-.52.33-.98.8-1.38,1.4-.39.61-.72,1.39-.98,2.37v1.02Z"></path>
            <path class="cls-1" d="M179.2,263.52c-1.61,0-3.02-.28-4.21-.84-1.19-.56-2.18-1.3-2.96-2.23-.78-.93-1.35-1.98-1.72-3.15-.37-1.17-.54-2.38-.52-3.62.02-1.24.23-2.44.65-3.62.41-1.17,1.02-2.22,1.82-3.15.8-.93,1.79-1.67,2.97-2.23,1.18-.56,2.54-.84,4.08-.84s2.86.28,4.02.84c1.15.56,2.13,1.3,2.91,2.23.79.93,1.39,1.98,1.8,3.15.41,1.17.63,2.38.66,3.62.03,1.24-.15,2.44-.52,3.62-.38,1.17-.96,2.22-1.75,3.15-.79.93-1.78,1.67-2.98,2.23-1.2.56-2.62.84-4.25.84ZM179.2,262.97c1.08,0,2.01-.27,2.79-.8.78-.53,1.43-1.23,1.94-2.1.51-.87.89-1.86,1.14-2.97.25-1.11.36-2.25.34-3.41-.02-1.16-.17-2.3-.44-3.41-.28-1.11-.66-2.1-1.17-2.97-.5-.87-1.13-1.57-1.88-2.1-.75-.53-1.61-.8-2.59-.8s-1.9.27-2.67.8c-.77.53-1.42,1.23-1.94,2.1-.52.87-.92,1.86-1.2,2.97-.28,1.11-.42,2.25-.44,3.41-.02,1.16.09,2.3.33,3.41.24,1.11.61,2.1,1.11,2.97.5.87,1.15,1.57,1.92,2.1.78.53,1.69.8,2.74.8Z"></path>
            <path class="cls-1" d="M198.2,263.3h-5.5v-.55c.11-.09.23-.22.36-.4.13-.17.25-.41.36-.7.11-.29.2-.65.28-1.07.07-.42.11-.93.11-1.54v-10.73c0-.88-.09-1.64-.28-2.27-.18-.63-.46-1.11-.83-1.44v-.55h4.4c.75,0,1.51,0,2.28-.03.77-.02,1.52,0,2.24.04.72.05,1.41.14,2.05.28.64.14,1.2.36,1.68.66.48.3.85.71,1.13,1.21.28.5.41,1.15.41,1.94,0,.62-.15,1.15-.45,1.57-.3.42-.7.78-1.2,1.07-.49.29-1.06.55-1.71.78-.64.23-1.29.47-1.95.73l4.02,6.74c.64,1.05,1.21,1.87,1.7,2.49.49.61.84,1.02,1.05,1.22v.55h-6.05v-.55c.11-.09.2-.24.26-.45.06-.21.09-.47.08-.78,0-.31-.08-.67-.22-1.09-.14-.41-.36-.88-.67-1.39l-3.11-5.17c-.31.26-.6.53-.85.83-.26.29-.49.62-.69.99v3.36c0,.61.04,1.12.11,1.54.07.42.16.78.28,1.07.11.29.23.53.36.7.13.17.25.31.36.4v.55ZM197.1,254.74c.24-.4.56-.77.96-1.09.4-.32.85-.63,1.33-.93.49-.3.98-.61,1.47-.91.49-.3.94-.63,1.35-.99.4-.36.73-.76.99-1.21.26-.45.38-.96.38-1.53,0-.64-.12-1.19-.37-1.64-.25-.45-.56-.81-.95-1.09-.38-.28-.81-.48-1.28-.61-.47-.13-.93-.19-1.39-.19-.68,0-1.27.12-1.76.36-.49.24-.74.55-.74.94v8.88Z"></path>
            <path class="cls-1" d="M216.66,263.3v-.55c.11-.09.23-.22.36-.4.13-.17.25-.41.36-.7.11-.29.2-.65.28-1.07.07-.42.11-.93.11-1.54v-2.47l-4.46-8.25c-.6-1.12-1.12-1.97-1.54-2.54-.42-.58-.73-.97-.93-1.17v-.55h6.16v.55c-.11.09-.22.24-.34.44-.12.2-.2.45-.25.76-.05.3-.03.66.04,1.07.07.41.26.88.55,1.42l3.63,6.55,3.71-6.52c.29-.51.41-.98.34-1.39-.06-.41-.21-.77-.43-1.09-.22-.31-.46-.57-.73-.78-.27-.21-.45-.36-.56-.45v-.55h4.95v.55c-.11.09-.29.27-.54.55s-.52.6-.83.98c-.3.38-.61.79-.93,1.24-.32.45-.61.89-.87,1.33l-3.69,6.49v3.85c0,.61.04,1.12.11,1.54.07.42.17.78.28,1.07.11.29.23.53.36.7.13.17.25.31.36.4v.55h-5.5Z"></path>
          </g>
          <g>
            <path class="cls-1" d="M103.87,198.88v7.15h-1.05c-.74-.81-1.51-1.58-2.31-2.31-.81-.74-1.61-1.38-2.42-1.95-.81-.56-1.61-1-2.42-1.31s-1.58-.47-2.31-.47-1.38.22-1.81.66-.75,1-.92,1.68-.28,1.44-.32,2.26c-.04.82-.05,1.62-.05,2.39v20.56c0,1.16.07,2.14.21,2.95.14.81.32,1.49.53,2.05.21.56.44,1.01.68,1.34.24.33.47.59.68.76v1.05h-10.52v-1.05c.21-.18.44-.43.68-.76.24-.33.47-.78.68-1.34.21-.56.39-1.24.53-2.05.14-.81.21-1.79.21-2.95v-20.51c0-.77,0-1.58-.03-2.42s-.12-1.6-.32-2.29c-.19-.68-.49-1.24-.89-1.68-.4-.44-1.01-.66-1.81-.66-.74,0-1.51.16-2.31.47s-1.61.75-2.42,1.31c-.81.56-1.61,1.21-2.42,1.95-.81.74-1.58,1.51-2.31,2.31h-1.05v-7.15h33.5Z"></path>
            <path class="cls-1" d="M114.91,227.54c0,.77.05,1.58.16,2.42s.33,1.61.68,2.31c.35.7.86,1.27,1.52,1.71.67.44,1.56.66,2.68.66s2.31-.17,3.47-.5c1.16-.33,2.28-.77,3.37-1.31,1.09-.54,2.11-1.18,3.08-1.92.96-.74,1.81-1.51,2.55-2.31h1.05v7.1h-26.98v-1.05c.21-.18.44-.43.68-.76.24-.33.47-.78.68-1.34.21-.56.38-1.24.53-2.05.14-.81.21-1.79.21-2.95v-20.51c0-1.16-.07-2.15-.21-2.97-.14-.82-.32-1.51-.53-2.05-.21-.54-.44-.98-.68-1.31-.25-.33-.47-.59-.68-.76v-1.05h26.98v7.1h-1.05c-.74-.81-1.59-1.58-2.55-2.31-.96-.74-1.99-1.38-3.08-1.95-1.09-.56-2.21-1-3.37-1.31-1.16-.32-2.31-.47-3.47-.47s-2.02.22-2.68.66c-.67.44-1.17,1-1.52,1.68-.35.68-.58,1.45-.68,2.29s-.16,1.65-.16,2.42v15.57c.39-1.33.85-2.63,1.39-3.89s1.2-2.38,1.97-3.37c.77-.98,1.66-1.77,2.66-2.37,1-.6,2.13-.89,3.39-.89s2.22.28,2.97.84c.75.56,1.32,1.19,1.71,1.89.49.84.84,1.77,1.05,2.79-.07,0-.4-.13-1-.39-.6-.26-1.42-.39-2.47-.39-1.37,0-2.66.11-3.86.34-1.21.23-2.31.66-3.31,1.29-1,.63-1.88,1.53-2.63,2.68-.75,1.16-1.38,2.66-1.87,4.52v1.95Z"></path>
            <path class="cls-1" d="M147.15,199.93c-.21.18-.44.43-.68.76-.25.33-.47.77-.68,1.31-.21.54-.39,1.22-.53,2.02-.14.81-.21,1.79-.21,2.95v20.56c0,.77.05,1.58.16,2.42s.35,1.61.74,2.31c.39.7.95,1.27,1.68,1.71.74.44,1.74.66,3,.66,1.16,0,2.31-.17,3.47-.5,1.16-.33,2.28-.77,3.37-1.31,1.09-.54,2.11-1.18,3.08-1.92.96-.74,1.81-1.51,2.55-2.31h1.05v7.1h-27.51v-1.05c.21-.18.44-.43.68-.76.24-.33.47-.78.68-1.34.21-.56.38-1.24.53-2.05.14-.81.21-1.79.21-2.95v-20.51c0-1.16-.07-2.15-.21-2.97-.14-.82-.32-1.51-.53-2.05-.21-.54-.44-.98-.68-1.31-.25-.33-.47-.59-.68-.76v-1.05h10.52v1.05Z"></path>
            <path class="cls-1" d="M193.58,226.28c0,1.79-.36,3.34-1.08,4.65-.72,1.31-1.67,2.39-2.84,3.23-1.17.84-2.52,1.47-4.05,1.89-1.53.42-3.08.63-4.65.63s-3.28-.23-4.89-.68c-1.61-.46-3.05-1.12-4.31-2-1.26-.88-2.28-1.96-3.05-3.26-.77-1.3-1.16-2.79-1.16-4.47v-19.25c0-1.16-.07-2.15-.21-2.97-.14-.82-.32-1.51-.53-2.05-.21-.54-.44-.98-.68-1.31-.25-.33-.47-.59-.68-.76v-1.05h10.52v1.05c-.21.18-.44.43-.68.76-.25.33-.47.77-.68,1.31-.21.54-.39,1.22-.53,2.02-.14.81-.21,1.79-.21,2.95v19.2c0,1.37.25,2.59.76,3.68.51,1.09,1.2,2.01,2.08,2.76.88.75,1.89,1.33,3.05,1.74,1.16.4,2.38.6,3.68.6,1.16,0,2.28-.18,3.37-.55,1.09-.37,2.05-.91,2.89-1.63.84-.72,1.53-1.63,2.05-2.73.53-1.1.79-2.39.79-3.87v-19.14c0-1.16-.16-2.15-.47-2.97-.32-.82-.68-1.51-1.08-2.05-.4-.54-.81-.98-1.21-1.31-.4-.33-.71-.59-.92-.76v-1.05h8.41v1.05c-.21.18-.52.43-.92.76-.4.33-.81.77-1.21,1.31-.4.54-.76,1.22-1.08,2.02-.32.81-.47,1.79-.47,2.95v19.3Z"></path>
            <path class="cls-1" d="M216.15,198.25c1.75,0,3.51.21,5.29.63,1.77.42,3.37,1.02,4.79,1.79,1.42.77,2.58,1.68,3.47,2.73.89,1.05,1.34,2.21,1.34,3.47,0,.74-.14,1.46-.42,2.16-.28.7-.68,1.31-1.21,1.84-.53.53-1.17.95-1.92,1.26-.75.32-1.6.47-2.55.47-.28,0-.57-.02-.87-.05-.3-.03-.61-.09-.92-.16.35,0,.64-.32.87-.97.23-.65.35-1.45.37-2.42.02-.96-.09-2.02-.32-3.16-.23-1.14-.66-2.19-1.29-3.16-.63-.96-1.49-1.77-2.58-2.42-1.09-.65-2.44-.97-4.05-.97-1.96,0-3.69.52-5.18,1.55-1.49,1.03-2.72,2.4-3.68,4.1-.96,1.7-1.68,3.64-2.16,5.81-.47,2.17-.7,4.4-.68,6.68.02,2.28.3,4.51.84,6.68.54,2.17,1.32,4.11,2.34,5.81,1.02,1.7,2.29,3.07,3.81,4.1,1.52,1.03,3.3,1.55,5.34,1.55,1.68,0,3.01-.31,3.97-.92.96-.61,1.7-1.38,2.21-2.29.51-.91.82-1.93.95-3.05.12-1.12.18-2.17.18-3.16,0-1.16-.07-2.15-.21-2.97-.14-.82-.32-1.51-.53-2.05-.21-.54-.44-.98-.68-1.31-.25-.33-.47-.59-.68-.76v-1.05h10.52v1.05c-.21.18-.44.43-.68.76-.25.33-.47.77-.68,1.31-.21.54-.39,1.22-.53,2.02-.14.81-.21,1.79-.21,2.94v9.73s-.15-.04-.34-.24c-.19-.19-.44-.4-.74-.63-.3-.23-.65-.44-1.05-.63-.4-.19-.81-.29-1.24-.29-.6,0-1.2.14-1.81.42-.61.28-1.33.58-2.16.89-.82.32-1.82.61-3,.89-1.17.28-2.64.42-4.39.42-2.88,0-5.4-.55-7.57-1.66-2.17-1.1-4-2.56-5.47-4.37-1.47-1.81-2.59-3.86-3.34-6.15-.75-2.3-1.15-4.65-1.18-7.05-.03-2.4.31-4.75,1.03-7.05.72-2.3,1.83-4.35,3.34-6.15,1.51-1.81,3.39-3.26,5.65-4.37,2.26-1.1,4.93-1.66,8.02-1.66Z"></path>
            <path class="cls-1" d="M262.21,226.28c0,1.79-.36,3.34-1.08,4.65-.72,1.31-1.67,2.39-2.84,3.23-1.17.84-2.52,1.47-4.05,1.89-1.53.42-3.08.63-4.65.63s-3.28-.23-4.89-.68c-1.61-.46-3.05-1.12-4.31-2-1.26-.88-2.28-1.96-3.05-3.26-.77-1.3-1.16-2.79-1.16-4.47v-19.25c0-1.16-.07-2.15-.21-2.97-.14-.82-.32-1.51-.53-2.05-.21-.54-.44-.98-.68-1.31-.25-.33-.47-.59-.68-.76v-1.05h10.52v1.05c-.21.18-.44.43-.68.76-.25.33-.47.77-.68,1.31-.21.54-.39,1.22-.53,2.02-.14.81-.21,1.79-.21,2.95v19.2c0,1.37.25,2.59.76,3.68.51,1.09,1.2,2.01,2.08,2.76.88.75,1.89,1.33,3.05,1.74,1.16.4,2.38.6,3.68.6,1.16,0,2.28-.18,3.37-.55,1.09-.37,2.05-.91,2.89-1.63.84-.72,1.53-1.63,2.05-2.73.53-1.1.79-2.39.79-3.87v-19.14c0-1.16-.16-2.15-.47-2.97-.32-.82-.68-1.51-1.08-2.05-.4-.54-.81-.98-1.21-1.31-.4-.33-.71-.59-.92-.76v-1.05h8.41v1.05c-.21.18-.52.43-.92.76-.4.33-.81.77-1.21,1.31-.4.54-.76,1.22-1.08,2.02-.32.81-.47,1.79-.47,2.95v19.3Z"></path>
          </g>
        </g>
      </g>
    </g>
  </g>
</svg>